<svg id="Layer_1" data-name="Layer 1" xmlns="http://www.w3.org/2000/svg" viewBox="0 0 1024 1024"><defs><style>.cls-1{fill:#ef8130;}.cls-2{fill:#e26b1b;}.cls-3{fill:#f29a57;}.cls-4,.cls-8{fill:none;stroke-miterlimit:10;}.cls-4{stroke:#1d1d1b;stroke-width:2.14px;}.cls-5{fill:#ed863a;}.cls-6{fill:#3c3c3b;}.cls-7{fill:#232323;}.cls-8{stroke:#6f6f6e;stroke-width:18.93px;}.cls-9{fill:#b75513;}.cls-10{fill:#fff;}.cls-11{fill:#c6601a;}.cls-12{fill:#1e1e1e;}.cls-13{fill:#e8b2c8;}.cls-14{fill:#876844;}.cls-15{fill:#98794d;}.cls-16{fill:#b69f7e;}.cls-17{fill:#1d1d1b;}.cls-18{fill:#f9e3d2;}.cls-19{fill:#dda6c0;}</style></defs><path class="cls-1" d="M284.82,829.27c-8,3.73-66.32,29.92-122.59.66-46.53-24.19-69.53-75-70.81-117.24C89,632.8,166.81,620.77,213.3,508.38c4-9.6,64.65-161-4.69-224.56-33.76-30.95-93.36-36.51-139.25-12.25C16,299.81-5.28,361.28,2,406.23,9,448.92,37.5,451.17,49.63,495.61c14.65,53.71-18.63,81.13-36,156.71C8.9,673-20,794.72,35.7,865.92c70.06,89.57,236.92,51.91,244.11,50.2"/><path class="cls-2" d="M231.94,318.28a183.28,183.28,0,0,0-59.89-3.17c-57.51,6.54-95.87,39.12-110.6,53.17C69.69,363,118.8,333,177.59,350c33.11,9.59,54.1,29.72,63.62,40.23a199.51,199.51,0,0,0-.93-38.2,151.74,151.74,0,0,0-3.37-18.12A137.55,137.55,0,0,0,231.94,318.28Z"/><path class="cls-2" d="M230.38,455.76a115.81,115.81,0,0,0-24.91-11.9c-38.2-12.86-73-1.9-87.63,3.74,7.23-1.76,48-11,81.17,14a84.91,84.91,0,0,1,22.23,25.16q2.91-8.75,5.65-18.19,1.88-6.5,3.49-12.77"/><path class="cls-2" d="M189.24,555c-3.8,6-8,12.19-12.72,18.54q-4.38,5.91-8.71,11.24a37.74,37.74,0,0,0-6.07-18.68c-9.81-14.76-30.64-21.34-52.9-17.15a112.95,112.95,0,0,1,80.4,6Z"/><path class="cls-2" d="M115.39,644.17a56.38,56.38,0,0,0-16.89-9.42c-17-5.91-32-1.91-37.92,0,2.51-.27,18.93-1.79,31.36,10.21a37.76,37.76,0,0,1,10.44,18.89c1.93-3.57,4.2-7.37,6.86-11.31C111.3,649.49,113.37,646.71,115.39,644.17Z"/><path class="cls-2" d="M91.42,712.69a42.73,42.73,0,0,0-51.5,8.2c2.27-1.31,15-8.37,30.83-3.88A40.64,40.64,0,0,1,94,734.77q-.42-4.31-.9-8.71Q92.31,719.24,91.42,712.69Z"/><path class="cls-2" d="M110.62,779.42a45,45,0,0,0-28.2,2.65c-19.08,8.63-24.31,28-25,30.64a54.79,54.79,0,0,1,66.83-13.6c-2-2.4-4.06-5-6.1-7.89A133,133,0,0,1,110.62,779.42Z"/><path class="cls-2" d="M162.23,829.93c-3.86,1.35-13.87,5.45-20.34,15.83-7.81,12.54-7.32,29.24,1,43.23-.32-2.9-1.89-19.64,10.27-34.23a46.61,46.61,0,0,1,30.63-16.18q-3.75-1.16-7.74-2.64A144.14,144.14,0,0,1,162.23,829.93Z"/><path class="cls-3" d="M579,630.87c-12.49,8.84-42.34,26-82.07,31.75a193.11,193.11,0,0,1-27.64,2A248,248,0,0,1,378.79,617c-118-98.36-95.36-274.41-92.68-293Q310,201,334,78a234.19,234.19,0,0,1,87.29,77.2,176.66,176.66,0,0,1,88.1,0A234.79,234.79,0,0,1,596.68,78q25.26,126.81,50.53,253.61a562.25,562.25,0,0,1-3.41,143.54C634.19,537.32,625.05,598.28,579,630.87Z"/><path class="cls-2" d="M275.75,420.18a416.54,416.54,0,0,1-9.31,75.47,412.3,412.3,0,0,1-13.72,48.72c-13.84,39.65-30,66.31-37.53,81.09-20.4,39.8-24.32,115.08,56.48,271.59a38.95,38.95,0,0,0-27.94,40.77l352.06.56H585.44l104.09-.57a38.95,38.95,0,0,0-27.94-40.77c80.8-156.51,76.88-231.79,56.48-271.59-25.28-49.32-37.29-73.62-51.25-129.81-7.75-31.19-8.25-53.06-8.52-59.52-.45-10.63.21-14.3-.26-14.4-1.66-.34-9.8,44.63-22.71,84.8-13.84,43-25.33,78.79-53.83,107.94-12,12.22-46,42.84-112.17,50.16a174.51,174.51,0,0,1-46.63-11.34C305.21,606.64,279.22,444,275.75,420.18Z"/><path class="cls-4" d="M381.88,890l-.16-.26"/><path class="cls-1" d="M459.54,888.53v49.85H342.9v0a49.84,49.84,0,0,1,38.82-48.57,49.08,49.08,0,0,1,11.06-1.24Z"/><path class="cls-1" d="M595.79,938.31v.07H479.16V888.53h66.76a45.9,45.9,0,0,1,7.05.52A49.82,49.82,0,0,1,595.79,938.31Z"/><path class="cls-1" d="M469.33,664.63q-4.89,123.74-9.79,247.47V888.53H392.78a49.08,49.08,0,0,0-11.06,1.24,294,294,0,0,1-43.58-179.08q-9.36,16.35-18.71,32.74C316,734.06,310.69,715,316.3,693a79.51,79.51,0,0,1,6.82-17.69c-4.31,2.64-8.61,5.25-12.92,7.87a95.86,95.86,0,0,1-.69-30.3v-.06a157.63,157.63,0,0,1,8.62-34.08c-4.21,5.87-8.39,11.78-12.6,17.66A165.08,165.08,0,0,1,309,571.3c-4.47,7.64-9,15.24-13.48,22.88a162.18,162.18,0,0,1,3.33-87.65Q290,520,281.14,533.4c-1.49-11.15-3.21-26.17-4.4-44-5.73-85.38,6.76-154.34,8.14-154.22.61.05-.8,13.59-.53,46.41.23,28.61,1.48,39.19,2.48,46a221.24,221.24,0,0,0,8.43,35.93l16.46-9A42.34,42.34,0,0,0,308,464.62c-2.86,12.37.75,22.87,2.76,27.62l10.13-11.92A78.51,78.51,0,0,0,331.16,542L342,526.41a72.78,72.78,0,0,0,11.89,43.4l17.5-4.7a63.57,63.57,0,0,0,9.4,43.12l15.36-12a42.7,42.7,0,0,0,3,26A41.55,41.55,0,0,0,409,635.55l12.81-11.1a82.66,82.66,0,0,0,47.57,40.18,83.18,83.18,0,0,0,47.34-40.18l12.81,11.1a41.47,41.47,0,0,0,12.8-39.28l15.37,12A63.47,63.47,0,0,0,567,565.11l17.5,4.7a72.92,72.92,0,0,0,11.9-43.4L607.27,542a78.73,78.73,0,0,0,10.31-61.63l10.12,11.92a43.27,43.27,0,0,0-1-37.68l16.47,9A428.86,428.86,0,0,0,647.9,394c-.82-55.3-12.62-112.5-12.45-112.52v0c.85,2.94,1.63,5.91,2.38,8.91,0,.06,0,.16.06.23a630.1,630.1,0,0,1,20.8,161.91c0,12.08-.43,24.35-1.24,36.92-1,15.21-2.48,29.87-4.41,44q-8.87-13.41-17.72-26.87a162.18,162.18,0,0,1,3.33,87.65c-4.51-7.64-9-15.24-13.49-22.88a165.34,165.34,0,0,1,3.5,65.06c-4.21-5.88-8.39-11.79-12.6-17.66a157.55,157.55,0,0,1,8.61,34.08v.06a97.15,97.15,0,0,1-.65,30.3c-4.31-2.62-8.62-5.23-12.93-7.87A79.54,79.54,0,0,1,617.89,693c5.62,22.07.3,41.1-3.13,50.47l-18.7-32.74A294.35,294.35,0,0,1,553,889.05a45.9,45.9,0,0,0-7.05-.52H479.16V912.1Q474.24,788.37,469.33,664.63Z"/><path class="cls-5" d="M643.17,463.52l-16.47-9a43.27,43.27,0,0,1,1,37.68,45,45,0,0,0-8.15-18.15c-4.4-5.76-9.35-8.69-16.24-13.36s-12.66-7-27.51-16.35c-37.27-23.43-69.13-74.85-78.93-113.66-1.73-6.76-5.16-22.66-17.59-29.09a27.86,27.86,0,0,0-24.75,0c-12.3,6.37-15.86,21.94-17.46,28.11C427.44,367,396.3,420.39,358,444.38c-9.23,5.79-18.49,11.56-28.1,16.71-5.26,2.82-9.42,4.88-13,9.51-5.67,7.23-6.31,16-6.11,21.64a43.76,43.76,0,0,1,1-37.68l-16.46,9a326.46,326.46,0,0,1-9.42-44c-5.39-37.72-3-68.57.29-95.51C292.26,273.8,307.69,187,334,77.93a234.19,234.19,0,0,1,87.29,77.2,176.66,176.66,0,0,1,88.1,0,234.79,234.79,0,0,1,87.33-77.2c33.14,115.85,47.64,207.4,50.53,253.6a782.29,782.29,0,0,1,.11,90.34C646.18,438.9,644.54,453.17,643.17,463.52Z"/><path class="cls-6" d="M489.78,402.64c-5.42,0-12.65-1.34-18.13-7.23a24.75,24.75,0,0,1-6.24-15.08V352.7h3.43v27.53a21.63,21.63,0,0,0,5.4,13.07c8.09,8.69,20.82,5.73,22.25,5.36a25.66,25.66,0,0,0,13-8.22l2.67,2a29.17,29.17,0,0,1-14.72,9.3A32.67,32.67,0,0,1,489.78,402.64Z"/><path class="cls-6" d="M444.16,402.64a32.76,32.76,0,0,1-7.62-.88,29.17,29.17,0,0,1-14.72-9.3l2.67-2a25.63,25.63,0,0,0,13,8.22c1.42.36,14.17,3.33,22.25-5.36a21.61,21.61,0,0,0,5.41-13.17V352.7h3.43v27.53a24.72,24.72,0,0,1-6.23,15.18C456.81,401.3,449.59,402.64,444.16,402.64Z"/><path class="cls-7" d="M484.94,341.74l-14.49,14.5a4.91,4.91,0,0,1-6.95,0L449,341.75a4.92,4.92,0,0,1,3.48-8.4h29A4.91,4.91,0,0,1,484.94,341.74Z"/><path class="cls-2" d="M324.49,219.75q11-46.73,22.1-93.44a88,88,0,0,1,45.7,39.12c-5,2.29-10.17,4.94-15.43,8A182.77,182.77,0,0,0,324.49,219.75Z"/><path class="cls-2" d="M616.57,220.8q-11.05-46.73-22.1-93.44a88.16,88.16,0,0,0-45.7,39.12c5,2.29,10.17,4.94,15.43,8A183.05,183.05,0,0,1,616.57,220.8Z"/><path class="cls-2" d="M421.25,155.16a72.44,72.44,0,0,0-13.43,30.38c-4.55,24.87,5.74,44.42,9.11,50.27a134.76,134.76,0,0,1,29.12-85.19c-3.9.4-8.08,1-12.49,1.78S425,154.15,421.25,155.16Z"/><path class="cls-2" d="M509.5,155.16a72.31,72.31,0,0,1,13.43,30.38c4.55,24.87-5.73,44.42-9.11,50.27a134.83,134.83,0,0,0-29.11-85.19c4.22.46,8.75,1.1,13.51,2C502.22,153.38,506,154.24,509.5,155.16Z"/><path class="cls-2" d="M479.58,150.15a362.05,362.05,0,0,1-15.12,100,281.86,281.86,0,0,1-13.62-100c3.76-.3,7.75-.5,11.94-.56,6-.09,11.63.14,16.8.55"/><path class="cls-1" d="M709.73,609.09a57.66,57.66,0,0,1-15.37,33.26c-15.52,16.23-35.31,17.37-39.5,17.51A63.41,63.41,0,0,0,725.36,644a194,194,0,0,0-7.29-18.58C715.35,619.44,712.52,614,709.73,609.09Z"/><path class="cls-1" d="M222.76,611.42a57.66,57.66,0,0,0,15.37,33.26c15.52,16.23,35.31,17.36,39.5,17.51a63.41,63.41,0,0,1-70.5-15.82,133.77,133.77,0,0,1,15.63-35Z"/><path class="cls-8" d="M384.13,172.89a149.13,149.13,0,0,1,71.5-26.54c49.68-4.66,86.22,17.67,97.31,25.06"/><path class="cls-1" d="M730.31,692.25a73.7,73.7,0,0,1-18.82,6.59,76.87,76.87,0,0,1-41.22-3.3,93.26,93.26,0,0,0,56.86,26.06q1-6.54,1.84-13.65.91-8.18,1.34-15.7"/><path class="cls-1" d="M202.74,692.25a73.92,73.92,0,0,0,18.83,6.59,76.87,76.87,0,0,0,41.22-3.3,93.26,93.26,0,0,1-56.86,26.06c-.69-4.36-1.32-8.91-1.85-13.65-.61-5.45-1-10.69-1.34-15.7"/><path class="cls-6" d="M347,117.68h0a17.86,17.86,0,0,1,17.86,17.86V295.35A17.86,17.86,0,0,1,347,313.21h0a60.4,60.4,0,0,1-60.4-60.4V178.08a60.4,60.4,0,0,1,60.4-60.4Z" transform="translate(139.37 -127.76) rotate(28.01)"/><path class="cls-6" d="M626,314.79h0a60.59,60.59,0,0,0,31.27-79.5l-29.83-68.51a60.58,60.58,0,0,0-79.49-31.28h0A17.91,17.91,0,0,0,538.68,159l63.79,146.53A17.91,17.91,0,0,0,626,314.79Z"/><path class="cls-9" d="M351,300.12a38.72,38.72,0,0,1,6.63-8.81,44.1,44.1,0,0,1,8.86-6.88A45.42,45.42,0,0,1,377,279.92a46.24,46.24,0,0,1,11.35-1.64c.48,0,.95,0,1.43,0l1.44.09,2.88.18,2.84.46,1.41.24,1.39.36c.93.25,1.85.49,2.77.75l2.68,1c.9.31,1.75.73,2.62,1.13s1.72.79,2.53,1.27a45.47,45.47,0,0,1,9.12,6.5,38.51,38.51,0,0,1,7.07,8.45,76.17,76.17,0,0,0-8.93-5.91,64.9,64.9,0,0,0-9.39-4.47,53.1,53.1,0,0,0-9.77-2.76l-1.23-.25-1.25-.15-2.49-.3-2.51-.11-1.25-.06c-.42,0-.84,0-1.26,0l-2.5.08c-.84,0-1.67.18-2.5.25a49.35,49.35,0,0,0-5,.78,57,57,0,0,0-9.65,3.1A69.26,69.26,0,0,0,351,300.12Z"/><path class="cls-9" d="M504.39,300.12a38.43,38.43,0,0,1,6.63-8.81,44.1,44.1,0,0,1,8.86-6.88,45.42,45.42,0,0,1,10.46-4.51,46.16,46.16,0,0,1,11.34-1.64c.48,0,1,0,1.44,0l1.44.09,2.87.18,2.84.46,1.42.24,1.39.36c.92.25,1.85.49,2.76.75l2.69,1a27.4,27.4,0,0,1,2.61,1.13c.86.41,1.72.79,2.54,1.27a45.4,45.4,0,0,1,9.11,6.5,38.83,38.83,0,0,1,7.08,8.45,76.27,76.27,0,0,0-8.94-5.91,64.79,64.79,0,0,0-9.38-4.47,53.32,53.32,0,0,0-9.77-2.76l-1.23-.25-1.25-.15-2.5-.3-2.5-.11-1.25-.06c-.42,0-.84,0-1.26,0l-2.51.08c-.83,0-1.66.18-2.49.25a49.35,49.35,0,0,0-5,.78,56.86,56.86,0,0,0-9.66,3.1A69.38,69.38,0,0,0,504.39,300.12Z"/><path class="cls-10" d="M763.76,135.46c1.52-10.48,3-20.74,4.52-31.21l-44.95,1.48c-.4,2.7-.8,5.31-1.18,7.92q-1.93,13.36-3.87,26.74c-1.09,7.63-6.22,12.37-14,12.8a15,15,0,0,1-3.95-.29c-6.25-1.34-8-6.93-3.83-11.77,4.53-5.22,11.51-6.81,18.75-4.14,2.52-17.78,5-35.5,7.58-53.41l51.94-2.47c0,.76-.06,1.34-.14,1.9q-4.15,28.89-8.33,57.78a10.05,10.05,0,0,1-3.43,6.4c-4.33,3.75-9.3,5.42-14.95,3.93s-7.09-6.86-3.24-11.49a16,16,0,0,1,18.09-4.4A7.57,7.57,0,0,0,763.76,135.46Zm6.35-44-45,1.49-.81,6,45-2.16C769.61,95,769.85,93.37,770.11,91.49Z"/><path class="cls-10" d="M758.94,242.74,806,192.33l3,2.6c-1,1.27-1.83,2.43-2.75,3.52a17.41,17.41,0,0,0-4.19,12.05c.11,3.87.29,7.73.32,11.6,0,6.8-1.5,13.08-6.37,18.17a22.46,22.46,0,0,1-9.06,5.84,7.94,7.94,0,0,1-1.77.21l-.25-.55a13.41,13.41,0,0,1,1.48-1.25,28.41,28.41,0,0,0,8.73-7.52,15.57,15.57,0,0,0,2.69-12.42c-.92-4.54-2.23-9-3.44-13.79-3.63,3.86-7,7.45-10.39,11.06-8.78,9.41-17.53,18.86-26.35,28.23-3,3.24-7,3.83-11.22,3.4-5-.53-9.5-2.41-12.65-6.59-3.44-4.54-2-9.61,3.23-11.86,7.15-3.06,17.24.14,21.29,6.76C758.46,242,758.63,242.28,758.94,242.74Z"/><path class="cls-10" d="M856.91,162.29l14.32-14.74L847,131.15l-3.65,3.73L831.05,147.5a9.15,9.15,0,0,1-12.27,1.41,9.81,9.81,0,0,1-2-1.66c-2.78-3.09-1.59-6.73,2.49-7.67,4.38-1,8.67.81,11.47,5l24.41-25.27,28.35,18.55c-.32.38-.54.68-.8.95q-13.25,13.65-26.48,27.29a6.6,6.6,0,0,1-4.26,2.07c-3.72.32-7-.69-9.39-3.65s-1.12-6.32,2.69-7.29a10.38,10.38,0,0,1,11.22,4.59A5.41,5.41,0,0,0,856.91,162.29Zm20.16-20.77-24.29-16.4L850.06,128l24.57,16.07Z"/><path class="cls-11" d="M549.81,360.36a1.5,1.5,0,0,1-1.45-1.08,1.51,1.51,0,0,1,1-1.89l137.09-41.06a1.51,1.51,0,1,1,.86,2.9L550.24,360.3A1.59,1.59,0,0,1,549.81,360.36Z"/><path class="cls-11" d="M686.89,416.41a1.59,1.59,0,0,1-.43-.06L549.37,375.28a1.51,1.51,0,0,1,.87-2.9l137.08,41.06a1.52,1.52,0,0,1-.43,3Z"/><path class="cls-11" d="M695,368.43H549.81a1.52,1.52,0,1,1,0-3H695a1.52,1.52,0,0,1,0,3Z"/><path class="cls-11" d="M387.26,360.36a1.59,1.59,0,0,1-.43-.06L249.74,319.23a1.51,1.51,0,1,1,.87-2.9l137.08,41.06a1.52,1.52,0,0,1-.43,3Z"/><path class="cls-11" d="M250.17,416.41a1.52,1.52,0,0,1-.43-3l137.09-41.06a1.51,1.51,0,1,1,.86,2.9L250.61,416.35A1.67,1.67,0,0,1,250.17,416.41Z"/><path class="cls-11" d="M387.26,368.43H242.08a1.52,1.52,0,1,1,0-3H387.26a1.52,1.52,0,0,1,0,3Z"/><path class="cls-12" d="M309.87,284c-1.77-.16-4.92.82-6.65,1.17-1.53.31-3.71.74-5.56-.39-.8-.49-2-1.65-1.86-2.76s1.75-1.79,4.91-3.26c.69-.32.91-.41,1.28-.57,1.67-.76,5.88-2.69,6.76-6.35a6.39,6.39,0,0,0-1.78-6.2,6.25,6.25,0,0,0-4-1.35,9.13,9.13,0,0,0-3.93,1,18.2,18.2,0,0,0-6.4,4.56,14.36,14.36,0,0,0-3.44,5.76,12.77,12.77,0,0,0-.33,5.89,10.49,10.49,0,0,0,5.85,7.88,14.13,14.13,0,0,0,5.07,1.51A15.8,15.8,0,0,0,308.7,289c2.65-1.28,2.93-2.15,3-2.59a2.46,2.46,0,0,0-1.08-2.21A1.75,1.75,0,0,0,309.87,284Zm-15.34-7.24c-.7-.82,1.43-4.41,4.44-5.93.94-.47,2.79-1.22,3.33-.59s-.76,2.75-.86,2.9a7.42,7.42,0,0,1-2.37,2.13C298.13,275.82,295.16,277.46,294.53,276.73Z"/><rect class="cls-12" x="296.3" y="250.1" width="3.72" height="10.81" rx="1.83" transform="translate(-39.93 55.82) rotate(-10.03)"/><rect class="cls-12" x="304.81" y="250.41" width="3.72" height="10.81" rx="1.83" transform="translate(105.82 -89.36) rotate(19.97)"/><rect class="cls-12" x="288.84" y="253.23" width="3.72" height="10.81" rx="1.83" transform="translate(679.64 269.71) rotate(139.97)"/><rect class="cls-12" x="284.16" y="259.71" width="3.72" height="10.81" rx="1.83" transform="translate(639.03 99.37) rotate(112.02)"/><rect class="cls-12" x="311.43" y="254.88" width="3.72" height="10.81" rx="1.83" transform="translate(296.54 -146.68) rotate(47.92)"/><path class="cls-2" d="M374.5,924.29a4.44,4.44,0,0,1-.94-2.71h0a7.81,7.81,0,0,1,1.66-4.49h0a11.85,11.85,0,0,1,3.56-3.28h0a5.66,5.66,0,0,1,2.59-.83h0a2.81,2.81,0,0,1,.5,0h0a4.76,4.76,0,0,1,2.88,1.44h0c.12.13.24.27.34.4h0c.08-.86.17-1.94.27-3.06h0c.21-2.63.43-5.54.42-6.43h0a.62.62,0,0,0,0-.16h0a6.92,6.92,0,0,1-.24-1.46h0a1.85,1.85,0,0,1,.2-.89h0a1.07,1.07,0,0,1,.93-.53h0a2.18,2.18,0,0,1,2.2,2.17h0a2.15,2.15,0,0,1-.11.74h0a.51.51,0,0,1,0,.09h0c0,.08,0,.19-.05.33h0c0,.27-.09.65-.14,1.11h0c-.1.91-.22,2.12-.33,3.45h0c-.2,2.44-.39,5.27-.45,7.38h0a2.73,2.73,0,0,1,.72.34h0a1.36,1.36,0,0,1,.52.73h0a2.85,2.85,0,0,1,.1.62h0a1.44,1.44,0,0,1-.28.88h0a1.71,1.71,0,0,1-.63.48h0a7.47,7.47,0,0,1-.79.29h0a10,10,0,0,1,.15,1.47h0a4.36,4.36,0,0,1-.07.81h0a1.45,1.45,0,0,1-.42.81h0a1.07,1.07,0,0,1-.71.28h-.14a2.36,2.36,0,0,1-1.1-.38h0a1.68,1.68,0,0,1-.59-.79h0a3.18,3.18,0,0,1-.11-.38h0c-.46.3-1.08.68-1.79,1.07h0a12.41,12.41,0,0,1-5.25,1.7h0a3.47,3.47,0,0,1-2.86-1.25Zm3.71-6.34a6.78,6.78,0,0,0-1.75,3.7h0a1,1,0,0,0,.24.7h0a1.09,1.09,0,0,0,.86.3h0a7.37,7.37,0,0,0,3-1.1h0c1.07-.59,2.22-1.34,3.31-2h0c-.05-.23-.12-.53-.22-.86h0a6.52,6.52,0,0,0-1-2.18h0a1.61,1.61,0,0,0-.95-.65h0l-.25,0h0a5.34,5.34,0,0,0-3.22,2.13Zm13.86,4.41a12.36,12.36,0,0,1-1.64-3.89h0a32.09,32.09,0,0,1-.92-6.27h0a2.29,2.29,0,0,1,0-.25h0a1.72,1.72,0,0,1,.31-1.08h0a1.17,1.17,0,0,1,.94-.47h0l.25,0h0a1.68,1.68,0,0,1,1.25.81h0a2,2,0,0,1,.24.95h0V913h0a25.64,25.64,0,0,0,.46,4.92h0a6.36,6.36,0,0,0,1.05,2.71h0c.27.3.45.37.64.37h0a.9.9,0,0,0,.42-.12h0a3.15,3.15,0,0,0,1.31-1.51h0a10,10,0,0,0,.71-2.45h0a22.15,22.15,0,0,0,.25-3.81h0V913h0a1.9,1.9,0,0,1,.21-1h0a1.46,1.46,0,0,1,1.29-.68h.1a1.42,1.42,0,0,1,.91.37h0a1.73,1.73,0,0,1,.42.64h0a3.07,3.07,0,0,1,.2.78h0v.13c0,.36-.11,1.9-.39,3.66h0a15.59,15.59,0,0,1-1.62,5.33h0a3.8,3.8,0,0,1-2.61,2h0a4.55,4.55,0,0,1-.52,0h0a3.89,3.89,0,0,1-3.22-1.9Zm12.36,2.75h-.27a1.7,1.7,0,0,1-1.18-.67h0a1.5,1.5,0,0,1-.26-.64h0l-.17,0h0a1.5,1.5,0,0,1-.89-.67h0l0,0,0,0a.69.69,0,0,1-.05-.18h0s0-.06,0-.09h0c0-.06,0-.12,0-.21h0c0-.16,0-.37,0-.64h0c0-.53-.05-1.26-.05-2.1h0a57.12,57.12,0,0,1,.19-5.8h0a1.8,1.8,0,0,1-.46-1h0s0-.07,0-.12h0a1.42,1.42,0,0,1,.43-1h0a2.28,2.28,0,0,1,.5-.42h0q0-.12.06-.3h0c.08-.36.19-.88.29-1.47h0a23.38,23.38,0,0,0,.4-3.93h0a1.28,1.28,0,0,0,0-.19h0a3,3,0,0,0-.12-.54h0a4.14,4.14,0,0,1-.17-1h0a1.39,1.39,0,0,1,.29-.92h0a1.47,1.47,0,0,1,1-.5H404a1.32,1.32,0,0,1,.84.33h0a2.26,2.26,0,0,1,.53.68h0a4.32,4.32,0,0,1,.51,2h0a1.48,1.48,0,0,1,0,.21h0a11.4,11.4,0,0,1-.27,2.47h0c-.14.67-.31,1.43-.49,2.49h0a12,12,0,0,1,3.43.47h0a5.68,5.68,0,0,1,3.66,2.86h0a2.34,2.34,0,0,1,.24,1.06h0a5,5,0,0,1-.82,2.51h0a16.72,16.72,0,0,1-1.82,2.43h0a47.87,47.87,0,0,1-3.69,3.61h0l-.4.37h0a2.51,2.51,0,0,0-.28.35h0a1.3,1.3,0,0,1-.43.46h0a1.1,1.1,0,0,1-.54.15h0Zm-.17-7.21a34.77,34.77,0,0,0,.22,3.48h0c.3-.23.64-.51,1-.84h0a19.72,19.72,0,0,0,3.1-3.23h0a3.61,3.61,0,0,0,.81-1.88h0a.81.81,0,0,0-.08-.37h0a2.49,2.49,0,0,0-1.47-.93h0a8.73,8.73,0,0,0-2.64-.37h0l-.57,0h0c0,.2-.08.47-.12.77h0a24.48,24.48,0,0,0-.26,2.71h0v.63Zm10.83,7.89a2,2,0,0,1-1.06-.37h0a1.23,1.23,0,0,1-.47-.72h0a4.53,4.53,0,0,1-.15-.84h0c-.08-.64-.11-1.47-.13-2.44h0c0-3.75.32-9.55.53-12.92h0c.11-1.71.18-3.16.25-4.3h0a13.22,13.22,0,0,1,.3-2.48h0a1.15,1.15,0,0,1,.29-.5h0a1.57,1.57,0,0,1,1.05-.47h0a1.93,1.93,0,0,1,1.34.67h0a1.47,1.47,0,0,1,.36.59h0a2.48,2.48,0,0,1,.1.73h0c0,.63-.11,1.48-.28,3h0c-.18,1.49-.42,3.62-.7,6.72h0c-.22,2.41-.31,4.87-.29,7h0c0,1.38.08,2.63.19,3.63h0v0c0,.13,0,.3,0,.49h0a4.13,4.13,0,0,1-.06.91h0a1.92,1.92,0,0,1-.46,1h0a1.25,1.25,0,0,1-.81.34h0Zm4.8-2.1.28-.61-.29.61a4.42,4.42,0,0,1-1.81-1.87h0a6.59,6.59,0,0,1-.82-3.12h0a6.66,6.66,0,0,1,.48-2.53h0a14.79,14.79,0,0,1,2.53-4.37h0a4.49,4.49,0,0,1,2.83-1.6h0l.25,0h0a4.56,4.56,0,0,1,2.74,1h0a5.92,5.92,0,0,1,2.08,3.72h0a6.88,6.88,0,0,1,.12,1.26h0a7.65,7.65,0,0,1-2.46,5.63h0a7.29,7.29,0,0,1-4.6,2.14h0a3,3,0,0,1-1.33-.26Zm3.72-10.45-.21.07h0a3.49,3.49,0,0,0-.83.54h0a8.15,8.15,0,0,0-2.26,3.92h0a2.68,2.68,0,0,0-.12.87h0a4,4,0,0,0,.34,1.56h0a1.42,1.42,0,0,0,.77.81h0a.85.85,0,0,0,.25,0h0a3.41,3.41,0,0,0,1.8-.86h0a5.06,5.06,0,0,0,1.36-1.59h0v0a6.08,6.08,0,0,0,.72-2.72h0a3.52,3.52,0,0,0-.39-1.6h0a2.19,2.19,0,0,0-.54-.81h0a1.51,1.51,0,0,0-.54-.25h0l-.31.05h0l-.05,0Zm-.17-.16.05-.5-.05.5ZM362.91,918a10.86,10.86,0,0,1,1.95-2.32,12.82,12.82,0,0,1,5.33-2.55l.94.08a4,4,0,0,1,2.1,1,2.35,2.35,0,0,1,.5,2.4,4.07,4.07,0,0,1-2,2.65,9.25,9.25,0,0,1-3.56,1.3c-1.29.19-2,.43-2.13.7s0,.61.49,1a7.72,7.72,0,0,0,3.29,1.08,14.24,14.24,0,0,0,4.31.26A15.15,15.15,0,0,0,377,923c.73-.24,1.52.53,1.93.47s.69.19.87.73c-.83.92-1.92.64-2.81,1a15.57,15.57,0,0,1-3.31.88,19.06,19.06,0,0,1-4.68.11l-1.1-.14a13.42,13.42,0,0,1-3.89-1.3,4.89,4.89,0,0,1-1.45-1.41,4.52,4.52,0,0,1-.55-2.17A8,8,0,0,1,362.91,918Zm3,.95a10.32,10.32,0,0,0,3.5-1.12c.61-.42.9-.84.88-1.26s-.5-.46-1.39-.13a4.91,4.91,0,0,0-1.89,1.1A16.15,16.15,0,0,0,365.88,918.92Z"/><path class="cls-2" d="M422.82,934.88a13.36,13.36,0,0,1-6.76-3.21h0a1.09,1.09,0,0,1-.37-.78h0a1.28,1.28,0,0,1,0-.19h0a1.66,1.66,0,0,1,.44-.85h0a1.59,1.59,0,0,1,.88-.43h0l.17,0h0a1.24,1.24,0,0,1,.87.35h0a8.74,8.74,0,0,0,1.87,1.21h0a15.26,15.26,0,0,0,2.17.86h0a15.47,15.47,0,0,0,3.38.61h0c.38,0,.75,0,1.13,0h0a12.53,12.53,0,0,0,2.28-.25h0a13,13,0,0,0,2.91-.92h0a6.56,6.56,0,0,0,3-3.36h0a18.07,18.07,0,0,0,.85-5.56h0c-.19.26-.39.52-.6.76h0a7.35,7.35,0,0,1-1.24,1.12h0a4.83,4.83,0,0,1-1.9.78h0a2.07,2.07,0,0,1-.35,0h0a2,2,0,0,1-.89-.19h0a3.08,3.08,0,0,1-.94-.65h0a4.6,4.6,0,0,1-1.28-3h0c0-.11,0-.22,0-.33h0a7.91,7.91,0,0,1,.6-3.13h0a19.41,19.41,0,0,1,1.63-3.18h0c.15-.24.43-.63.85-1.18h0a12.9,12.9,0,0,1,1.53-1.64h0a8.51,8.51,0,0,1,1.91-1.35h0a3.06,3.06,0,0,1,1.37-.37h0a2.41,2.41,0,0,1,.75.09h0a1.2,1.2,0,0,1,.41.19h0a.5.5,0,0,1,.19.37h0v.08h0a1.33,1.33,0,0,1-.35.66h.11a2.42,2.42,0,0,1,.45,0h0c.8.11,1.32.57,1.32,1.27h0v.11h0c-.09,1.87-.19,3.73-.28,5.6h0c-.1,1.87-.29,3.73-.49,5.59h0a21.18,21.18,0,0,1-.94,4.69h0a9,9,0,0,1-.94,2h0a8.57,8.57,0,0,1-2.6,2.48h0a12.82,12.82,0,0,1-3.41,1.48h0a16.07,16.07,0,0,1-3.87.55h0a17.94,17.94,0,0,1-3.82-.33Zm12.95-22.11a6.13,6.13,0,0,0-.59.64h0l-.64.79h0a8.88,8.88,0,0,0-1,1.57h0c-.27.54-.54,1.09-.8,1.66h0a8.29,8.29,0,0,0-1,3.48h0v0h0a3.6,3.6,0,0,0,.14,1h0c.06.2.14.27.19.29h0l.05,0h0a.8.8,0,0,0,.17-.14h0a5.94,5.94,0,0,0,.51-.65h0a16.92,16.92,0,0,0,1.48-2.86h0a25.45,25.45,0,0,0,1.06-3h0c.28-1,.57-2,.86-3h0c-.14.11-.25.21-.36.31Z"/><path class="cls-2" d="M442.14,924.69a6.89,6.89,0,0,1-2.26-2.06h0a1,1,0,0,1-.19-.58h0a1,1,0,0,1,.07-.41h0a1.83,1.83,0,0,1,.59-.81h0a1.7,1.7,0,0,1,.89-.39h.12a1,1,0,0,1,.79.41h0a4.79,4.79,0,0,0,1.36,1.24h0a1,1,0,0,0,.57.18h0a.82.82,0,0,0,.64-.35h0l0,0h0l.05-.15h0a1.71,1.71,0,0,0,.1-.66h0v0h0a3.12,3.12,0,0,0-.25-1h0a3.33,3.33,0,0,0-1-1.22h0a9.13,9.13,0,0,0-.86-.64h0a4,4,0,0,1-.87-.76h0a3.21,3.21,0,0,1-.77-2h0a3.92,3.92,0,0,1,.05-.67h0a4.26,4.26,0,0,1,1.66-2.82h0a7.47,7.47,0,0,1,2.9-1.45h0a.91.91,0,0,1,.23,0h0a.84.84,0,0,1,.66.29h0a1,1,0,0,1,.28.67h0a1.48,1.48,0,0,1,0,.21h0a1.75,1.75,0,0,1-1.09,1.33h0a4.37,4.37,0,0,0-.81.5h0a3.63,3.63,0,0,0-.77.74h0a1.64,1.64,0,0,0-.33.81h0V915h0a.86.86,0,0,0,.39.65h0a9.93,9.93,0,0,0,1,.74h0a4.91,4.91,0,0,1,1,.87h0a10,10,0,0,1,1,1.38h0a4.19,4.19,0,0,1,.58,1.65h0c0,.19,0,.37,0,.56h0a5,5,0,0,1-.49,2.25h0A3.53,3.53,0,0,1,445.2,925h0a4.16,4.16,0,0,1-1.22.23h0a3.58,3.58,0,0,1-1.84-.49Zm2.79-2.73v0Zm-.09-.07,0,0,0,0Z"/><path class="cls-2" d="M439.08,905.44c.21-.32.43-.62.9-.58a.7.7,0,0,1,.64.75,1.41,1.41,0,0,1-.26.64l-1.19,1.87c-.21.32-.44.63-.9.58a.72.72,0,0,1-.65-.75,1.45,1.45,0,0,1,.27-.64Z"/><path class="cls-2" d="M434.8,905.17a.94.94,0,0,1,.37-1,.71.71,0,0,1,1,.21,1.39,1.39,0,0,1,.17.67l.18,2.21c0,.39,0,.77-.37,1a.7.7,0,0,1-1-.21,1.46,1.46,0,0,1-.18-.67Z"/><path class="cls-2" d="M431.26,906.41a1,1,0,0,1-.05-1.07.7.7,0,0,1,1-.19,1.36,1.36,0,0,1,.43.55l1,2a1,1,0,0,1,.05,1.07.7.7,0,0,1-1,.19,1.52,1.52,0,0,1-.43-.55Z"/><path class="cls-2" d="M431.21,909.27c.33.19.65.41.62.87a.7.7,0,0,1-.72.69,1.45,1.45,0,0,1-.65-.24l-1.91-1.1c-.33-.2-.64-.42-.62-.88a.7.7,0,0,1,.72-.68,1.38,1.38,0,0,1,.65.23Z"/><path class="cls-2" d="M442,907.82a.92.92,0,0,1,1.05-.16.69.69,0,0,1,.29.94,1.32,1.32,0,0,1-.49.48L441,910.31a.92.92,0,0,1-1,.16.69.69,0,0,1-.29-.94,1.42,1.42,0,0,1,.49-.49Z"/><path class="cls-13" d="M843.59,936.24h28.24a.29.29,0,0,1,.29.29v.84a2.77,2.77,0,0,1-2.77,2.77H845.16a2.44,2.44,0,0,1-2.44-2.44v-.6a.87.87,0,0,1,.87-.87Z" transform="translate(1714.84 1876.39) rotate(-180)"/><path class="cls-13" d="M917.74,899.13c-2.12,2.34-4.39,4.55-6.74,6.69s-4.83,4.13-7.38,6.06-5.27,3.61-7.94,5.41c-2.79,1.57-5.58,3.18-8.43,4.68a126.85,126.85,0,0,1-36.89,11.54,162.37,162.37,0,0,1-19.28,1.9c-6.44.2-12.89.17-19.28-.19s-12.76-.92-19-1.55-12.39-1.31-18.58-1.73a571.27,571.27,0,0,0-74.49-.64c-12.45.65-24.91,1.64-37.38,2.8-6.24.64-12.48,1.25-18.73,2-3.12.33-6.25.66-9.37,1.07s-6.26.74-9.41,1c6-1.87,12.08-3.72,18.2-5.27,3-.8,6.11-1.62,9.19-2.33l9.24-2.1q18.57-3.93,37.47-6.25a383.8,383.8,0,0,1,76.17-1.84c6.34.48,12.72,1.2,18.94,1.93l9.29,1.08c3.08.29,6.16.64,9.22.88,6.15.58,12.27.78,18.4.94l4.59,0c1.53,0,3.06,0,4.58-.11l4.58-.2c1.53,0,3-.26,4.56-.37A141,141,0,0,0,885,916.77c2.87-1.09,5.69-2.33,8.57-3.47l8.33-4.11Q906,907,910,904.44C912.61,902.78,915.18,901,917.74,899.13Z"/><ellipse class="cls-14" cx="966.75" cy="709.88" rx="48.14" ry="38.84" transform="translate(-225.06 844.5) rotate(-42.73)"/><path class="cls-15" d="M870.23,946.07h43.5a29.19,29.19,0,0,0,29-32.53,351.17,351.17,0,0,1-7.44-40.15c-.86-6.87-1.1-11.71-1.57-19.36-.93-15-.23-12.9-1.05-27.6-.62-11.07-1.28-16.76.65-25.28a63.21,63.21,0,0,1,2.06-7.09l-68.08-43.3a56.2,56.2,0,0,1,5,29.2c-.76,7.12-2.81,12.36-5.46,19a127.29,127.29,0,0,1-10.05,19.8,46.53,46.53,0,0,0-6.69,19.71q-4,38.16-8,76.33A28.32,28.32,0,0,0,870.23,946.07Z"/><path class="cls-15" d="M857.38,731.34c6.42,15,25,26.87,37.09,37.25,9.83,8.45,22.38,21.94,33.13,43.69l22.68-53.15A149.43,149.43,0,0,1,963,710.5c-14.09-12.44-27.08-15.76-34-16.85-11.9-1.89-23.09.11-27.83,1-12.86,2.3-19,6.08-32,6A68.56,68.56,0,0,1,855,699.1l-2.14,2.75q-.17,4-.34,7.93A62.47,62.47,0,0,0,857.38,731.34Z"/><path class="cls-16" d="M887.11,932.58c9.36,0,16.62-10.27,15.55-22l-5.39-58.87a30.51,30.51,0,0,0-7.2-17.48c-.81-.91-6.67-6.53-14.6-7-10.82-.65-22.3,8.56-26.62,23.08q-3.24,30.75-6.47,61.5a23.77,23.77,0,0,0-.26,11.89,25.45,25.45,0,0,0,2.78,6.72C849,936.81,866.22,938.53,887.11,932.58Z"/><path class="cls-16" d="M854.71,723.73c.56,1.78,1.44,4.44,2.67,7.61a113.15,113.15,0,0,0,6.55,14c3,5.59,8.66,16.3,8.65,29,0,9.75-3.37,18.46-5.75,24.64a83.27,83.27,0,0,1-3.59,8.1c-4.3,8.44-6.23,8.59-9,14.51-2.26,4.87-2.92,9-4.17,16.9a113.59,113.59,0,0,0-1.24,11.86l48.66,4a51.2,51.2,0,0,1,.4-13.65c.47-2.8,1.08-5,7-21.19,2.54-7,3-8,3.76-10.61a129.37,129.37,0,0,0,3.43-14.38C913.72,784.67,891.86,755.11,854.71,723.73Z"/><circle class="cls-17" cx="913.42" cy="714.31" r="4.15"/><circle class="cls-10" cx="915.61" cy="713.58" r="0.71"/><path class="cls-13" d="M840.19,942.13h35.7a.33.33,0,0,1,.33.33v.47a3.11,3.11,0,0,1-3.11,3.11H842a2.73,2.73,0,0,1-2.73-2.73v-.2A1,1,0,0,1,840.19,942.13Z" transform="translate(1715.44 1888.16) rotate(180)"/><path class="cls-10" d="M893.41,719.88a28.79,28.79,0,0,1,7.1,4.47,31.4,31.4,0,0,1,5.63,6.32,31,31,0,0,1,3.69,7.61,28.57,28.57,0,0,1,1.39,8.28,40.24,40.24,0,0,0-6-15.25A40.72,40.72,0,0,0,893.41,719.88Z"/><path class="cls-10" d="M891.74,720.84a16.7,16.7,0,0,1,4.28,4,18.48,18.48,0,0,1,1.58,2.5,20.06,20.06,0,0,1,1.15,2.74,17,17,0,0,1-.34,11.56,27.37,27.37,0,0,0,.27-5.7,21.47,21.47,0,0,0-1-5.51A24.77,24.77,0,0,0,891.74,720.84Z"/><path class="cls-10" d="M889.47,721.54a13.59,13.59,0,0,1,3.17,4.89,14.36,14.36,0,0,1,.9,5.85A15.13,15.13,0,0,1,892,738a14.74,14.74,0,0,1-3.53,4.63,20.57,20.57,0,0,0,3.92-10.41,16.85,16.85,0,0,0-.6-5.51A21.11,21.11,0,0,0,889.47,721.54Z"/><path class="cls-15" d="M974.32,686c1.71-.2,29.94-2.9,43.19,17.75,7.22,11.25,5.94,23.15,5.44,26.59-2.52,17.13-16.05,29.56-29.89,34.52-21.84,7.82-40.67-4.32-42.78-5.73,0-9.25-.33-19.07-1-29.4-.75-10.85-1.85-21.09-3.17-30.66A51.78,51.78,0,0,1,974.32,686Z"/><path class="cls-13" d="M954.27,712a37.89,37.89,0,0,1,.44,31.28c16.4,8.4,33.42,4.16,39.27-5.89a21.36,21.36,0,0,0-1.57-22.82c-6-7.75-16.16-7.79-20.5-7.72A35.63,35.63,0,0,0,954.27,712Z"/><path class="cls-18" d="M564.05,690.19c45.73-6.68,94-15.2,144.55-26,45.24-9.7,88.08-20.36,128.4-31.55a629.06,629.06,0,0,0,47.92,201.47c-43.89,15.3-91.17,30.15-141.68,43.84-44.29,12-86.84,22-127.33,30.28A728.54,728.54,0,0,0,592.23,773,727.29,727.29,0,0,0,564.05,690.19Z"/><path class="cls-15" d="M846.55,771c-2.45,3.17,9.81,18,22.41,28.35a110.2,110.2,0,0,0,35.89,19.39,97.84,97.84,0,0,0,8.74-6c3.41-2.64,4.7-4,7.81-6.3a72.63,72.63,0,0,1,9.29-5.85,310.7,310.7,0,0,1-50.48-16.42C860.28,775.67,848.63,768.28,846.55,771Z"/><path class="cls-6" d="M711.75,707.74a26.68,26.68,0,0,0-17.86,8.54,32,32,0,0,0-8.4,19.78,46.08,46.08,0,0,0,.69,11.84c.71,3.87,1.62,8.07,4.2,11.17,2.47,2.95,5.93,5.15,9.25,7a51.44,51.44,0,0,0,10.54,4.45c14.2,4.21,29.91,1.29,41.18-8.5,5.53-4.8,10.09-11.47,11.15-18.84,1.11-7.63-1.57-15.46-6.34-21.4-9.76-12.13-26.82-17.26-41.93-15.54a52.12,52.12,0,0,0-5.93,1c-.52.12-1.49.53-1.65,1.12s.39.63.86.52c14.26-3.26,30.32,0,41.56,9.6a30.84,30.84,0,0,1,10.68,18c1.25,7.39-1,14.54-5.59,20.39-8.42,10.87-22.54,15.39-35.88,13.32a49.1,49.1,0,0,1-19.94-7.93c-3.14-2.12-6-4.51-7.52-8.08a39.51,39.51,0,0,1-2.54-10.9c-.79-7.16,0-14.7,3.43-21.13,2.94-5.5,8-10.27,14.07-12a19.67,19.67,0,0,1,4.56-.7,2.57,2.57,0,0,0,1.82-1c.29-.46.21-.81-.41-.79Z"/><path class="cls-6" d="M728.91,707.58a22.91,22.91,0,0,1,7.2-20.74l-.8.08a22.78,22.78,0,0,1,14.54,10.72c3.79,6.46,3.83,14.25,3.73,21.51,0,1,2.62,2.12,2.64,1,.07-5.21,0-10.5-1.24-15.58a26.22,26.22,0,0,0-6.6-11.83,27.4,27.4,0,0,0-11-7,9.78,9.78,0,0,0-3-.77c-.85,0-1.72,1.27-2.26,1.86a23,23,0,0,0-3.8,5.66,23.94,23.94,0,0,0-1.95,14.51c.17.94,2.81,1.91,2.57.53Z"/><path class="cls-6" d="M701.93,710.7c1.47-4.52-2-8.41-5.63-10.57a66.67,66.67,0,0,0-13.45-5.77c-.28-.09-2.77-.17-2.69.27.72,4.08-1.81,8-2.88,11.82a37,37,0,0,0-1.39,11.32,27.51,27.51,0,0,0,2.61,10.88c1.76,3.63,4.53,6.65,6.2,10.33.29.63,2.94-.05,2.9-.13-1.68-3.68-4.44-6.7-6.2-10.33a27.53,27.53,0,0,1-2.62-10.89,36.66,36.66,0,0,1,1.4-11.31c1.07-3.82,3.6-7.75,2.87-11.82l-2.69.27a64.32,64.32,0,0,1,13.16,5.65c3.59,2.14,7,5.94,5.52,10.41,0,.11,2.68.53,2.89-.13Z"/><path class="cls-6" d="M718.68,741.52a10.12,10.12,0,0,0,4-1.47c.59-.32,1.18-.65,1.79-.91l.51-.2c.13-.05.1,0,0,0l.26-.07a4.93,4.93,0,0,1,1-.16l-1.59-1.92-.52,3.38-.27,1.76-.06.44c-.06.35-.16.32.4-.06.17-.28.36-.37.59-.26-.11,0-.12,0,0,0s-.14-.12-.18-.15a7.24,7.24,0,0,0-2.88-1.47c-.4-.07-.8-.09-1.2-.16-.08,0-.34-.11-.06,0-.05,0-.26-.06-.27-.1l.14.08c-.09-.07-.1-.07,0,0s.08.09,0,0a2.68,2.68,0,0,1,.18.33v.72c-.73.46-.91.67-.54.61-.15,0-.13,0,0,0s.38,0,.57,0c.35,0,.71.06,1.06.11a13,13,0,0,1,2,.42,1.19,1.19,0,0,0,1.59-.8,1.59,1.59,0,0,0-.92-1.83,15.4,15.4,0,0,0-4.52-.75,1.83,1.83,0,0,0-1.28.37,1.63,1.63,0,0,0-.46,1.62,2.69,2.69,0,0,0,1.75,1.8,11.08,11.08,0,0,0,1.81.33c.07,0,.37.07.25,0l.12,0,.23.1.17.08c-.22-.11,0,0,0,0l.47.32a3.79,3.79,0,0,0,1.93,1,1.49,1.49,0,0,0,1.36-.69,2.94,2.94,0,0,0,.3-1.17l.79-5.14a1.56,1.56,0,0,0-1.59-1.91,9.83,9.83,0,0,0-4,1.44c-.59.32-1.17.65-1.79.92l-.51.2c-.12,0-.1,0,0,0l-.26.08a6,6,0,0,1-1,.17c-.74,0-1.11,1-.94,1.6a1.54,1.54,0,0,0,1.59,1.2Z"/><path class="cls-6" d="M722.67,743.22c.87,1.39,1.73,2.8,2.63,4.16a10.58,10.58,0,0,0,3.05,3.33,3.91,3.91,0,0,0,4.63-.26,11,11,0,0,0,2.43-3.88.87.87,0,0,0-.67-1.3,1.87,1.87,0,0,0-1.83.93c-.29.6-.58,1.21-.88,1.81a3.16,3.16,0,0,1-.7,1.07c.18-.17-.16.23,0,0,0,.06-.22.11,0,0a.88.88,0,0,1-.41,0,3.28,3.28,0,0,1-1.32-.84,14.17,14.17,0,0,1-2.18-2.82l-2.2-3.5a1.33,1.33,0,0,0-1.76-.26c-.48.24-1.2,1-.82,1.58Z"/><path class="cls-6" d="M721.84,739.86c.88,3,2.57,5.74,3.29,8.8a10.34,10.34,0,0,1,.28,2.35c0,.75,0,1.41-.86,1.51a8.12,8.12,0,0,1-2.36-.16c-.41-.08-.81-.18-1.21-.29a3.76,3.76,0,0,0-.48-.13q-.56-.21.3.39.45.81.54.27c.21-.67-2-2.39-2.22-1.72-.34,1,1,2.13,1.71,2.6a7.8,7.8,0,0,0,2.62.88,8.54,8.54,0,0,0,3.06.23c1-.15,1.11-.85,1.12-1.74,0-4.18-2.49-7.75-3.63-11.64a3,3,0,0,0-1.34-1.47c-.25-.16-1-.49-.82.12Z"/><path class="cls-6" d="M732.33,716.52c-3.71-.59-6.81,3.09-7.49,6.41a9.31,9.31,0,0,0,3.91,9.28,11.1,11.1,0,0,0,5.46,1.9,6.67,6.67,0,0,0,5-1.62,9.28,9.28,0,0,0,3.2-4.28,7.65,7.65,0,0,0-.43-5.14,11.44,11.44,0,0,0-9.85-6.52c-.64,0-.5.64-.29,1a2.39,2.39,0,0,0,1.58,1.23c2.45.16,5.26,1.05,6.4,3.42a6,6,0,0,1,.47,3.83,7.17,7.17,0,0,1-2.3,3.64,6.79,6.79,0,0,1-3.77,2.15,8.65,8.65,0,0,1-4.56-.78c-2.28-1.06-3.09-3.84-2.68-6.18.53-2.93,3.22-6.65,6.6-6.11.65.1.47-.69.28-1a2.43,2.43,0,0,0-1.57-1.23Z"/><path class="cls-6" d="M734.41,720.51a5,5,0,0,0-3.94,1.3,2.62,2.62,0,0,0-1.24,2.12,6.11,6.11,0,0,0,1.27,4.61,3.91,3.91,0,0,0,4.43,1.14,4.32,4.32,0,0,0,1.17-.86,5.27,5.27,0,0,0,1.4-4.91,4.46,4.46,0,0,0-3.76-3.31"/><path class="cls-6" d="M704.16,724.55c-3.81.4-6.23,4.52-6.44,8a8.8,8.8,0,0,0,5.21,8.67,10.65,10.65,0,0,0,5.84.53,7.73,7.73,0,0,0,5-2.9,11.48,11.48,0,0,0,2.45-5.13,7.63,7.63,0,0,0-1.08-5c-2.31-3.81-7-5-11.17-4.13a1.51,1.51,0,0,0-1.29,1.51,1.28,1.28,0,0,0,1.55,1c2.64-.54,5.68-.15,7.59,1.93a5.94,5.94,0,0,1,1.59,3.35,6.14,6.14,0,0,1-1.08,3.86,5.5,5.5,0,0,1-2.72,2.66,8.17,8.17,0,0,1-4.49.21,6.32,6.32,0,0,1-4.56-5.27c-.33-2.49.85-6.5,3.81-6.81a1.28,1.28,0,1,0-.25-2.54Z"/><path class="cls-6" d="M706.43,728.21A5.05,5.05,0,0,0,703,730.5a3.27,3.27,0,0,0-.68,1.37,3.36,3.36,0,0,0,0,1,6.17,6.17,0,0,0,2.44,4.12,3.9,3.9,0,0,0,4.58-.08,4.12,4.12,0,0,0,.9-1.13,5.28,5.28,0,0,0,0-5.11,4.47,4.47,0,0,0-4.5-2.2"/><path class="cls-6" d="M742.56,738.21l23-25c.43-.47-.55-.2-.68-.15a4.42,4.42,0,0,0-1.67,1.08l-23,25c-.43.47.54.2.68.15a4.38,4.38,0,0,0,1.67-1.08Z"/><path class="cls-6" d="M744.9,745.63a77.6,77.6,0,0,0,21.29-7.56c1.46-.77-.2-3.15-1.67-2.37A75.78,75.78,0,0,1,743.85,743c-1.67.32-.54,3,1,2.67Z"/><path class="cls-6" d="M746.57,752.19h31.59c1.89,0,1.17-2.42-.4-2.42H746.17c-1.89,0-1.17,2.42.4,2.42Z"/><path class="cls-6" d="M712.74,744.55a213.69,213.69,0,0,1-34.86-1.17c-1.69-.2-2.35,2.36-.48,2.58a213.77,213.77,0,0,0,34.87,1.17,1.62,1.62,0,0,0,1.64-1.2,1.2,1.2,0,0,0-1.17-1.38Z"/><path class="cls-6" d="M711.44,750.26a65,65,0,0,0-23.91,11.13c-1,.71,1,2.82,2,2.06a63.83,63.83,0,0,1,23.48-10.85c1.25-.3-.45-2.61-1.61-2.34Z"/><path class="cls-6" d="M714.48,755.57a210.71,210.71,0,0,0-12.27,17.52c-.42.67,1.13,3,1.52,2.36A212.39,212.39,0,0,1,716,757.93c.46-.59-1-3-1.52-2.36Z"/><path class="cls-6" d="M719.24,772.31a102.31,102.31,0,0,0-9.72,23.21c-2,7.13-3.44,14.69-2.45,22.11a25.43,25.43,0,0,0,10.31,17.66,47.8,47.8,0,0,0,10.2,5.44,56.18,56.18,0,0,0,12.09,3.58c15.15,2.47,29.91-5.47,38.26-17.95,7.45-11.14,9.75-25.42,5.2-38.13A46.8,46.8,0,0,0,756,760.69a40.16,40.16,0,0,0-4.79-1.48c-1.84-.45-.41,1.53.59,1.77A41.29,41.29,0,0,1,778,820.55c-6.32,12.09-18.55,21.6-32.5,22.28-7.82.38-15.75-2.26-22.65-5.77a26.09,26.09,0,0,1-8.49-6.45,21.88,21.88,0,0,1-4.25-9c-1.57-6.63-.76-13.7.75-20.26a99.94,99.94,0,0,1,8-22.26q1.33-2.65,2.8-5.22c.48-.84-2-2.38-2.43-1.59Z"/><path class="cls-6" d="M706.76,807.41A55.9,55.9,0,0,1,683.21,778c-3.88-10.93-3.87-25.5-14.93-32.21-4-2.46-10.54-4.48-14.78-1.38-4.54,3.31-3,10.37-1.45,14.83,3.82,10.93,12.83,19,21.13,26.65q17.55,16.11,34,33.39a4,4,0,0,0,1.64.7c.14,0,1.17.23,1,.1q-14-14.69-28.74-28.53c-8.3-7.77-17.64-15.2-23.42-25.17-2.59-4.46-4.88-10.07-4.34-15.34a7.61,7.61,0,0,1,3.59-6.13,9.12,9.12,0,0,1,8.61.07c10.94,6.27,11.05,20.85,14.71,31.46a56.59,56.59,0,0,0,24.07,30.35,6.85,6.85,0,0,0,1.86.7c.14,0,1.06.21.58-.08Z"/><path class="cls-6" d="M773.67,832.28a28.06,28.06,0,0,1,11.74-2.4c1.09,0,3.62-.2,3.94,1.16a5.57,5.57,0,0,1-1.45,4.88,9.32,9.32,0,0,1-4.38,1.8,34,34,0,0,1-5.94.65,35.78,35.78,0,0,1-12.1-1.88,1.24,1.24,0,0,0-1.53,1,1.57,1.57,0,0,0,1.23,1.62,37.74,37.74,0,0,0,11.68,2c3.48,0,7.44-.24,10.66-1.65s4.65-4.26,4.61-7.83c0-3.78-3.64-4.35-6.69-4.45a29.68,29.68,0,0,0-12.87,2.51c-1.64.72-.42,3.27,1.1,2.6Z"/><path class="cls-6" d="M742.17,843c-4.3-.18-8.73-.37-12.91.81-3.24.92-7.62,2.94-8.82,6.37-1.4,4,3.1,6.13,6.3,6.46,4,.4,7.93-1.16,11.42-2.91a58.66,58.66,0,0,0,11.63-7.7c1.18-1-.68-3.17-2-2.1A56.39,56.39,0,0,1,737.1,851c-3.54,1.8-7.85,3.65-11.89,2.59a4,4,0,0,1-2.29-1.19c-.52-.88.46-1.91,1-2.48a13.35,13.35,0,0,1,5-3c4.29-1.54,8.94-1.34,13.43-1.14,1.76.07,1.36-2.72-.19-2.79Z"/><path class="cls-6" d="M630,889.13c3.59-3.52,7.17-7.06,10.52-10.81,3.06-3.44,6.16-7.05,8.26-11.17a19.61,19.61,0,0,0,2-6c.12-.8.46-2.23-.25-2.83s-1.57-.24-2.25,0c-2.34.71-5.08,1.76-5.85,4.26s-1.35,5-2,7.42a100.75,100.75,0,0,0-3,17.14,11.25,11.25,0,0,0,2.44-.71,10.16,10.16,0,0,0,2.8-1.53q5.74-5.25,11.85-10.08l-5,2.05.13,3.59c0,.2,1.42-.3,1.44-.31,11.93-4.39,24-8.48,35.73-13.45.68-.29,1.37-.59,2-.94.11-.06,1.08-.52,1.13-.74.11-.43-1.88.38-2,.44-11.28,4.78-22.94,8.72-34.44,12.95l1.44-.32-.14-3.59c0-.23-2.06.56-2.08.56a12.38,12.38,0,0,0-2.92,1.49q-6.33,5-12.32,10.47l5.23-2.25a90.11,90.11,0,0,1,2.13-13.37c.51-2.21,1.07-4.4,1.65-6.59l.81-3c.14-.52.27-1,.43-1.55.46-1.46,1.49-1.68-1.27-.51-3.59,1.53-1.69.25-1,1.23a2.25,2.25,0,0,1,.19,1.38,15.48,15.48,0,0,1-.45,2.86,21.78,21.78,0,0,1-2.39,5.59,62.69,62.69,0,0,1-7.61,9.87c-3.3,3.69-6.82,7.17-10.35,10.64-.27.26.4.12.37.12a5.85,5.85,0,0,0,1.65-.56,9.76,9.76,0,0,0,3.15-1.68Z"/><rect class="cls-19" x="852.32" y="699.68" width="8.18" height="6.27" rx="3.13" transform="translate(1177.78 1763.06) rotate(-146.24)"/></svg>